<?xml version="1.0" encoding="UTF-8" standalone="no"?>
<!-- Created with Inkscape (http://www.inkscape.org/) -->

<svg
   version="1.1"
   id="svg2"
   xml:space="preserve"
   width="933.33331"
   height="933.33331"
   viewBox="0 0 933.33331 933.33331"
   xmlns="http://www.w3.org/2000/svg"
   xmlns:svg="http://www.w3.org/2000/svg"><defs
     id="defs6"><linearGradient
       x1="0"
       y1="0"
       x2="1"
       y2="0"
       gradientUnits="userSpaceOnUse"
       gradientTransform="matrix(-606.58789,0,0,606.58789,653.29395,141.84102)"
       spreadMethod="pad"
       id="linearGradient26"><stop
         style="stop-opacity:1;stop-color:#00aeef"
         offset="0"
         id="stop22" /><stop
         style="stop-opacity:1;stop-color:#2b3990"
         offset="1"
         id="stop24" /></linearGradient><linearGradient
       x1="0"
       y1="0"
       x2="1"
       y2="0"
       gradientUnits="userSpaceOnUse"
       gradientTransform="matrix(120.76608,120.76608,120.76608,-120.76608,437.82178,422.02429)"
       spreadMethod="pad"
       id="linearGradient48"><stop
         style="stop-opacity:1;stop-color:#4578e6"
         offset="0"
         id="stop42" /><stop
         style="stop-opacity:1;stop-color:#2bc0e4"
         offset="0.9"
         id="stop44" /><stop
         style="stop-opacity:1;stop-color:#2bc0e4"
         offset="1"
         id="stop46" /></linearGradient><linearGradient
       x1="0"
       y1="0"
       x2="1"
       y2="0"
       gradientUnits="userSpaceOnUse"
       gradientTransform="matrix(-148.95186,-177.5139,-177.5139,148.95186,424.47748,451.59589)"
       spreadMethod="pad"
       id="linearGradient70"><stop
         style="stop-opacity:1;stop-color:#4578e6"
         offset="0"
         id="stop64" /><stop
         style="stop-opacity:1;stop-color:#262d65"
         offset="0.75"
         id="stop66" /><stop
         style="stop-opacity:1;stop-color:#262d65"
         offset="1"
         id="stop68" /></linearGradient><linearGradient
       x1="0"
       y1="0"
       x2="1"
       y2="0"
       gradientUnits="userSpaceOnUse"
       gradientTransform="matrix(-246.25726,-246.25726,-246.25726,246.25726,382.94724,642.15369)"
       spreadMethod="pad"
       id="linearGradient94"><stop
         style="stop-opacity:1;stop-color:#4578e6"
         offset="0"
         id="stop86" /><stop
         style="stop-opacity:1;stop-color:#4578e6"
         offset="0.15"
         id="stop88" /><stop
         style="stop-opacity:1;stop-color:#262d65"
         offset="0.95"
         id="stop90" /><stop
         style="stop-opacity:1;stop-color:#262d65"
         offset="1"
         id="stop92" /></linearGradient><linearGradient
       x1="0"
       y1="0"
       x2="1"
       y2="0"
       gradientUnits="userSpaceOnUse"
       gradientTransform="matrix(153.08855,0,0,-153.08855,377.22882,571.01282)"
       spreadMethod="pad"
       id="linearGradient116"><stop
         style="stop-opacity:1;stop-color:#4578e6"
         offset="0"
         id="stop110" /><stop
         style="stop-opacity:1;stop-color:#2bc0e4"
         offset="0.55"
         id="stop112" /><stop
         style="stop-opacity:1;stop-color:#2bc0e4"
         offset="1"
         id="stop114" /></linearGradient></defs><g
     id="g8"
     transform="matrix(1.3333333,0,0,-1.3333333,0,933.33333)"><g
       id="g10"><g
         id="g12"><g
           id="g18"><g
             id="g20"><path
               d="M 46.706,80.992 H 70.43 V 245.048 L 46.706,258.783 Z M 588.66,174.2 v 9.489 H 564.831 V 80.992 h 23.829 v 49.557 c 0,12.793 1.618,21.754 4.85,26.886 v 0 c 3.304,5.201 8.892,7.802 16.766,7.802 v 0 c 7.237,0 12.23,-1.967 14.971,-5.904 v 0 c 2.811,-3.866 4.217,-10.86 4.217,-20.982 v 0 -57.359 h 23.83 v 62.948 c 0,14.479 -2.884,24.917 -8.646,31.314 v 0 c -6.679,7.522 -15.992,11.282 -27.941,11.282 v 0 c -10.403,0 -19.754,-4.112 -28.047,-12.336 m -131.756,-3.268 c -10.614,-10.403 -15.92,-23.022 -15.92,-37.853 v 0 c 0,-15.747 5.201,-28.821 15.604,-39.223 v 0 C 466.989,83.311 479.89,78.04 495.284,78.04 v 0 c 15.534,0 28.643,5.167 39.329,15.499 v 0 c 10.611,10.402 15.921,23.303 15.921,38.696 v 0 c 0,15.253 -5.273,28.115 -15.816,38.591 v 0 c -10.686,10.474 -23.689,15.71 -39.013,15.71 v 0 c -15.253,0 -28.188,-5.203 -38.801,-15.604 m 16.554,-62.631 c -5.482,5.974 -8.225,14.093 -8.225,24.356 v 0 c 0,9.559 2.811,17.36 8.436,23.407 v 0 c 5.623,6.046 12.969,9.068 22.036,9.068 v 0 c 9.209,0 16.623,-3.022 22.248,-9.068 v 0 c 5.552,-5.975 8.329,-13.954 8.329,-23.934 v 0 c 0,-9.982 -2.777,-17.961 -8.329,-23.935 v 0 c -5.552,-5.974 -12.968,-8.962 -22.248,-8.962 v 0 c -9.209,0 -16.624,3.021 -22.247,9.068 M 337.906,170.932 C 327.292,160.529 321.985,147.91 321.985,133.079 v 0 c 0,-15.747 5.202,-28.821 15.605,-39.223 v 0 C 347.991,83.311 360.892,78.04 376.285,78.04 v 0 c 15.535,0 28.644,5.167 39.33,15.499 v 0 c 10.612,10.402 15.92,23.303 15.92,38.696 v 0 c 0,15.253 -5.272,28.115 -15.815,38.591 v 0 c -10.686,10.474 -23.689,15.71 -39.012,15.71 v 0 c -15.254,0 -28.189,-5.203 -38.802,-15.604 m 16.554,-62.631 c -5.483,5.974 -8.225,14.093 -8.225,24.356 v 0 c 0,9.559 2.811,17.36 8.436,23.407 v 0 c 5.623,6.046 12.968,9.068 22.037,9.068 v 0 c 9.208,0 16.622,-3.022 22.247,-9.068 v 0 c 5.552,-5.975 8.33,-13.954 8.33,-23.934 v 0 c 0,-9.982 -2.778,-17.961 -8.33,-23.935 v 0 c -5.552,-5.974 -12.968,-8.962 -22.247,-8.962 v 0 c -9.21,0 -16.624,3.021 -22.248,9.068 m -138.399,61.576 c -8.365,-10.474 -12.547,-23.196 -12.547,-38.169 v 0 c 0,-15.394 4.498,-28.222 13.496,-38.484 v 0 C 225.936,83.102 237.395,78.04 251.383,78.04 v 0 c 12.3,0 23.16,4.813 32.581,14.445 v 0 -14.34 c 0,-21.298 -8.683,-31.948 -26.044,-31.948 v 0 c -9.42,0 -16.589,3.2 -21.509,9.596 v 0 c -2.109,2.741 -3.621,6.643 -4.533,11.703 v 0 h -23.83 c 1.406,-13.426 6.679,-23.934 15.816,-31.527 v 0 c 8.857,-7.38 20.139,-11.07 33.846,-11.07 v 0 c 16.237,0 28.995,5.342 38.274,16.027 v 0 c 4.918,5.553 8.224,12.195 9.911,19.928 v 0 c 0.562,2.811 1.002,6.063 1.317,9.752 v 0 c 0.318,3.692 0.475,7.961 0.475,12.811 v 0 100.272 h -23.723 v -11.598 c -8.577,9.631 -19.332,14.445 -32.265,14.445 v 0 c -14.761,0 -26.64,-5.552 -35.638,-16.659 M 234.83,109.04 c -4.71,5.973 -7.065,13.635 -7.065,22.985 v 0 c 0,9.488 2.355,17.221 7.065,23.195 v 0 c 5.201,6.678 12.299,10.017 21.298,10.017 v 0 c 8.435,0 15.357,-3.057 20.771,-9.173 v 0 c 5.341,-5.975 8.014,-13.954 8.014,-23.934 v 0 c 0,-9.348 -2.426,-17.012 -7.276,-22.985 v 0 c -5.271,-6.608 -12.441,-9.912 -21.509,-9.912 v 0 c -9.067,0 -16.168,3.269 -21.298,9.807 M 98.645,171.142 C 89.436,160.878 84.832,148.051 84.832,132.657 v 0 c 0,-15.675 4.604,-28.75 13.813,-39.223 v 0 C 107.924,83.17 119.662,78.04 133.861,78.04 v 0 c 11.246,0 21.756,4.569 31.527,13.707 v 0 -10.755 h 23.829 v 102.697 h -23.829 v -11.913 c -9.49,9.84 -20.209,14.76 -32.159,14.76 v 0 c -13.849,0 -25.376,-5.131 -34.584,-15.394 m 18.346,-62.525 c -5.272,6.185 -7.907,14.198 -7.907,24.04 v 0 c 0,9.208 2.705,16.94 8.118,23.197 v 0 c 5.483,6.184 12.3,9.278 20.455,9.278 v 0 c 8.646,0 15.674,-3.058 21.088,-9.173 v 0 c 5.412,-6.257 8.119,-14.199 8.119,-23.829 v 0 c 0,-9.631 -2.707,-17.573 -8.119,-23.829 v 0 c -5.414,-6.047 -12.512,-9.068 -21.299,-9.068 v 0 c -8.224,0 -15.042,3.127 -20.455,9.384"
               style="fill:url(#linearGradient26);stroke:none"
               id="path28" /></g></g></g></g><g
       id="g30"><g
         id="g32"><g
           id="g38"><g
             id="g40"><path
               d="M 456.454,530.674 377.229,482.617 530.318,393.334 V 571.061 Z"
               style="fill:url(#linearGradient48);stroke:none"
               id="path50" /></g></g></g></g><g
       id="g52"><g
         id="g54"><g
           id="g60"><g
             id="g62"><path
               d="M 290.257,437.829 169.738,362.848 350.118,258.783 530.265,362.831 350,466.97 Z"
               style="fill:url(#linearGradient70);stroke:none"
               id="path72" /></g></g></g></g><g
       id="g74"><g
         id="g76"><g
           id="g82"><g
             id="g84"><path
               d="M 169.682,571.125 169.738,362.848 350,466.97 v 208.131 z"
               style="fill:url(#linearGradient94);stroke:none"
               id="path96" /></g></g></g></g><g
       id="g98"><g
         id="g100"><g
           id="g106"><g
             id="g108"><path
               d="m 377.229,482.617 153.089,88.444 -153.089,88.347 z"
               style="fill:url(#linearGradient116);stroke:none"
               id="path118" /></g></g></g></g></g></svg>
