<?xml version="1.0" encoding="UTF-8" standalone="no"?>
<!-- Created with Inkscape (http://www.inkscape.org/) -->

<svg
   version="1.1"
   id="svg2"
   xml:space="preserve"
   width="1866.6667"
   height="1850.6667"
   viewBox="0 0 1866.6667 1850.6667"
   xmlns="http://www.w3.org/2000/svg"
   xmlns:svg="http://www.w3.org/2000/svg"><defs
     id="defs6"><clipPath
       clipPathUnits="userSpaceOnUse"
       id="clipPath16"><path
         d="M 0,1388 H 1400 V 0 H 0 Z"
         id="path14" /></clipPath></defs><g
     id="g8"
     transform="matrix(1.3333333,0,0,-1.3333333,0,1850.6667)"><g
       id="g10"><g
         id="g12"
         clip-path="url(#clipPath16)"><g
           id="g18"
           transform="translate(700.2246,520.2988)"><path
             d="M 0,0 343.047,198.132 -0.225,396.443 V 792.779 L -343.596,594.781 -343.49,198.168 Z M 343.146,594.659 51.626,762.896 V 426.239 l 291.52,-170.018 z m -467.314,-835.84 c 0,19.005 -5.089,34.201 -15.26,45.578 -10.308,11.646 -23.491,17.468 -39.553,17.468 -17.136,0 -30.654,-6.357 -40.558,-19.074 -8.969,-11.378 -13.453,-26.102 -13.453,-44.172 0,-17.803 4.484,-32.395 13.453,-43.77 9.768,-12.45 23.291,-18.673 40.558,-18.673 17.267,0 30.92,6.291 40.96,18.873 9.236,11.375 13.853,25.968 13.853,43.77 m -1.807,98.183 h 45.176 v -190.943 c 0,-9.237 -0.3,-17.368 -0.904,-24.397 -0.6,-7.025 -1.438,-13.217 -2.509,-18.571 -3.212,-14.725 -9.507,-27.374 -18.874,-37.948 -17.668,-20.346 -41.963,-30.519 -72.884,-30.519 -26.101,0 -47.585,7.027 -64.451,21.082 -17.401,14.456 -27.44,34.468 -30.117,60.034 h 45.377 c 1.737,-9.637 4.618,-17.066 8.634,-22.287 9.367,-12.178 23.019,-18.271 40.959,-18.271 33.059,0 49.593,20.279 49.593,60.838 v 27.305 c -17.939,-18.341 -38.62,-27.507 -62.042,-27.507 -26.637,0 -48.458,9.638 -65.455,28.912 -17.135,19.543 -25.7,43.972 -25.7,73.287 0,28.51 7.962,52.736 23.893,72.683 17.133,21.149 39.756,31.724 67.865,31.724 24.627,0 45.106,-9.17 61.439,-27.508 z m 461.439,-98.183 c 0,19.005 -5.29,34.201 -15.862,45.578 -10.711,11.512 -24.831,17.267 -42.366,17.267 -17.266,0 -31.255,-5.755 -41.963,-17.267 -10.711,-11.514 -16.062,-26.372 -16.062,-44.574 0,-19.545 5.221,-35.005 15.66,-46.38 10.709,-11.514 24.828,-17.267 42.365,-17.267 17.67,0 31.791,5.688 42.366,17.066 10.572,11.375 15.862,26.571 15.862,45.577 m 16.062,73.688 c 20.078,-19.947 30.119,-44.443 30.119,-73.486 0,-29.315 -10.11,-53.88 -30.319,-73.688 -20.349,-19.677 -45.31,-29.515 -74.892,-29.515 -29.315,0 -53.879,10.039 -73.688,30.118 -19.81,19.807 -29.715,44.705 -29.715,74.691 0,28.24 10.106,52.27 30.318,72.081 20.21,19.808 44.841,29.716 73.887,29.716 29.182,0 53.942,-9.973 74.29,-29.917 m 209.336,8.432 c -12.718,14.323 -30.452,21.485 -53.208,21.485 -19.81,0 -37.615,-7.831 -53.407,-23.492 v 18.07 H 408.87 V -338.56 h 45.377 v 94.368 c 0,24.362 3.079,41.428 9.235,51.2 6.291,9.905 16.934,14.857 31.925,14.857 13.784,0 23.291,-3.748 28.511,-11.244 5.352,-7.361 8.031,-20.68 8.031,-39.955 V -338.56 h 45.377 v 119.868 c 0,27.574 -5.49,47.451 -16.464,59.631 m -909.826,-82.12 c 0,18.339 -5.153,33.462 -15.46,45.377 -10.31,11.646 -23.693,17.468 -40.156,17.468 -15.53,0 -28.512,-5.892 -38.953,-17.668 -10.309,-11.916 -15.459,-26.638 -15.459,-44.173 0,-18.742 5.019,-34.001 15.058,-45.778 10.307,-11.916 23.29,-17.869 38.952,-17.869 16.732,0 30.248,5.753 40.558,17.267 10.307,11.912 15.46,27.036 15.46,45.376 m -2.811,98.183 h 45.377 V -338.56 h -45.377 v 20.48 c -18.606,-17.401 -38.62,-26.102 -60.034,-26.102 -27.039,0 -49.392,9.769 -67.061,29.315 -17.538,19.944 -26.303,44.841 -26.303,74.69 0,29.315 8.765,53.74 26.303,73.286 17.534,19.543 39.484,29.315 65.856,29.315 22.756,0 43.168,-9.37 61.239,-28.11 z m 460.635,-98.183 c 0,19.005 -5.29,34.201 -15.861,45.578 -10.712,11.512 -24.831,17.267 -42.365,17.267 -17.268,0 -31.255,-5.755 -41.964,-17.267 -10.711,-11.514 -16.063,-26.372 -16.063,-44.574 0,-19.545 5.221,-35.005 15.662,-46.38 10.708,-11.514 24.827,-17.267 42.365,-17.267 17.669,0 31.79,5.688 42.365,17.066 10.571,11.375 15.861,26.571 15.861,45.577 m 16.064,73.688 c 20.078,-19.947 30.117,-44.443 30.117,-73.486 0,-29.315 -10.109,-53.88 -30.318,-73.688 -20.349,-19.677 -45.311,-29.515 -74.893,-29.515 -29.314,0 -53.879,10.039 -73.687,30.118 -19.811,19.807 -29.715,44.705 -29.715,74.691 0,28.24 10.105,52.27 30.318,72.081 20.209,19.808 44.841,29.716 73.888,29.716 29.18,0 53.94,-9.973 74.29,-29.917 M -577.775,0 -532.6,-26.156 V -338.56 h -45.175 z"
             style="fill:#ffffff;fill-opacity:1;fill-rule:nonzero;stroke:none"
             id="path20" /></g></g></g></g></svg>
